<?xml version="1.0" encoding="UTF-8"?>
<svg width="159px" height="48px" viewBox="0 0 159 48" version="1.1" xmlns="http://www.w3.org/2000/svg" xmlns:xlink="http://www.w3.org/1999/xlink">
    <title>F9CAB485-3736-4D20-B173-12A2D60FE6E9</title>
    <defs>
        <linearGradient x1="49.96159%" y1="-0.0194671251%" x2="49.96159%" y2="99.9827675%" id="linearGradient-1">
            <stop stop-color="#A6DEEF" offset="0.1275911%"></stop>
            <stop stop-color="#6CC5F0" offset="51.04%"></stop>
            <stop stop-color="#355BAA" offset="99.88%"></stop>
        </linearGradient>
    </defs>
    <g id="Designs" stroke="none" stroke-width="1" fill="none" fill-rule="evenodd">
        <g id="homepage-new" transform="translate(-151.000000, -6147.000000)">
            <rect id="bbg" fill="#FFFFFF" x="0" y="1091" width="1440" height="6335"></rect>
            <g id="Group-11" transform="translate(0.000000, 6085.000000)">
                <rect id="Rectangle" fill="#FFFFFF" x="0" y="0" width="1440" height="274"></rect>
                <g id="Agaetis-logo-final" transform="translate(151.000000, 62.000000)" fill-rule="nonzero">
                    <g>
                        <g id="Group" transform="translate(51.420333, 0.000000)">
                            <g opacity="0.5" transform="translate(0.000000, 40.705663)" fill="#112039">
                                <polygon id="Path" points="2.33699073 5.41497352 1.72002518 5.41497352 1.72002518 0.709548255 0.0560877776 0.709548255 0.0560877776 0.168050902 4.00092814 0.168050902 4.00092814 0.709548255 2.33699073 0.709548255"></polygon>
                                <polygon id="Path" points="12.4514866 5.41497352 9.51622627 5.41497352 9.51622627 0.168050902 12.4514866 0.168050902 12.4514866 0.709548255 10.1331918 0.709548255 10.1331918 2.4087296 12.3206151 2.4087296 12.3206151 2.95022695 10.1331918 2.95022695 10.1331918 4.89214849 12.4514866 4.89214849"></polygon>
                                <path d="M20.5842144,0.634858965 C20.0046407,0.634858965 19.5559385,0.82158219 19.2194118,1.21370096 C18.8828851,1.60581973 18.7146218,2.12864476 18.7146218,2.80084837 C18.7146218,3.49172431 18.8828851,4.01454934 19.2007159,4.38799579 C19.5185466,4.76144224 19.9859448,4.94816546 20.5842144,4.94816546 C20.9581329,4.94816546 21.3694433,4.87347617 21.8368414,4.74276991 L21.8368414,5.28426727 C21.4629229,5.41497352 21.0142207,5.48966281 20.4907348,5.48966281 C19.7242018,5.48966281 19.1259322,5.24692262 18.6959259,4.78011456 C18.2659196,4.3133065 18.0602644,3.64110289 18.0602644,2.78217605 C18.0602644,2.2406787 18.153744,1.77387064 18.3593992,1.36307954 C18.5650544,0.952288447 18.8454933,0.634858965 19.2381077,0.429463417 C19.6307222,0.22406787 20.0794244,0.0933616125 20.5842144,0.0933616125 C21.1450922,0.0933616125 21.6124903,0.186723225 22.0238007,0.392118772 L21.7620577,0.914943802 C21.3881392,0.728220577 20.9955248,0.634858965 20.5842144,0.634858965 Z" id="Path"></path>
                                <polygon id="Path" points="31.6895943 5.41497352 31.0726288 5.41497352 31.0726288 2.95022695 28.3056318 2.95022695 28.3056318 5.41497352 27.6886662 5.41497352 27.6886662 0.168050902 28.3056318 0.168050902 28.3056318 2.4087296 31.0726288 2.4087296 31.0726288 0.168050902 31.6895943 0.168050902"></polygon>
                                <path d="M41.9723536,5.41497352 L41.2806043,5.41497352 L38.4014317,1.00830541 L38.3640399,1.00830541 C38.4014317,1.53113044 38.4201277,1.99793851 38.4201277,2.42740192 L38.4201277,5.41497352 L37.8592499,5.41497352 L37.8592499,0.168050902 L38.5509991,0.168050902 L41.4114758,4.55604669 L41.4488677,4.55604669 C41.4488677,4.50002972 41.4301717,4.27596185 41.4114758,3.93986005 C41.3927799,3.58508592 41.3927799,3.34234573 41.3927799,3.19296715 L41.3927799,0.168050902 L41.9723536,0.168050902 L41.9723536,5.41497352 L41.9723536,5.41497352 Z" id="Path"></path>
                                <path d="M52.703815,2.78217605 C52.703815,3.62243056 52.4981598,4.27596185 52.0681535,4.76144224 C51.6381473,5.24692262 51.0585735,5.48966281 50.2920406,5.48966281 C49.5255076,5.48966281 48.927238,5.24692262 48.4972317,4.78011456 C48.0672254,4.3133065 47.8615702,3.64110289 47.8615702,2.78217605 C47.8615702,1.92324922 48.0672254,1.26971793 48.4972317,0.784237545 C48.927238,0.317429482 49.5255076,0.07468929 50.2920406,0.07468929 C51.0398776,0.07468929 51.6381473,0.317429482 52.0681535,0.802909867 C52.4981598,1.28839025 52.703815,1.94192154 52.703815,2.78217605 Z M48.5159276,2.78217605 C48.5159276,3.49172431 48.665495,4.03322166 48.9646299,4.40666811 C49.2637647,4.78011456 49.7124669,4.96683778 50.2920406,4.96683778 C50.8716143,4.96683778 51.3203165,4.78011456 51.6194513,4.42534043 C51.9185861,4.05189398 52.0681535,3.51039663 52.0681535,2.80084837 C52.0681535,2.09130012 51.9185861,1.54980277 51.6194513,1.19502864 C51.3203165,0.82158219 50.8903102,0.653531287 50.3107365,0.653531287 C49.7311628,0.653531287 49.2824606,0.840254512 48.9833258,1.21370096 C48.665495,1.54980277 48.5159276,2.09130012 48.5159276,2.78217605 Z" id="Shape"></path>
                                <polygon id="Path" points="58.5930317 5.41497352 58.5930317 0.168050902 59.2099972 0.168050902 59.2099972 4.87347617 61.528292 4.87347617 61.528292 5.43364585 58.5930317 5.43364585"></polygon>
                                <path d="M71.6988757,2.78217605 C71.6988757,3.62243056 71.4932205,4.27596185 71.0632142,4.76144224 C70.6332079,5.24692262 70.0536342,5.48966281 69.2871013,5.48966281 C68.5205683,5.48966281 67.9222987,5.24692262 67.4922924,4.78011456 C67.0622861,4.3133065 66.8566309,3.64110289 66.8566309,2.78217605 C66.8566309,1.92324922 67.0622861,1.26971793 67.4922924,0.784237545 C67.9222987,0.317429482 68.5205683,0.07468929 69.2871013,0.07468929 C70.0349383,0.07468929 70.6332079,0.317429482 71.0632142,0.802909867 C71.4932205,1.28839025 71.6988757,1.94192154 71.6988757,2.78217605 Z M67.5109883,2.78217605 C67.5109883,3.49172431 67.6605557,4.03322166 67.9596905,4.40666811 C68.2588253,4.78011456 68.7075276,4.96683778 69.2871013,4.96683778 C69.866675,4.96683778 70.3153772,4.78011456 70.614512,4.42534043 C70.9136468,4.05189398 71.0632142,3.51039663 71.0632142,2.80084837 C71.0632142,2.09130012 70.9136468,1.54980277 70.614512,1.19502864 C70.3153772,0.82158219 69.8853709,0.653531287 69.3057972,0.653531287 C68.7262235,0.653531287 68.2775213,0.840254512 67.9783865,1.21370096 C67.6605557,1.54980277 67.5109883,2.09130012 67.5109883,2.78217605 Z" id="Shape"></path>
                                <path d="M79.9063872,2.67014212 L81.701196,2.67014212 L81.701196,5.2282503 C81.4207572,5.32161191 81.1403183,5.37762888 80.8598794,5.43364585 C80.5794405,5.47099049 80.2429138,5.50833514 79.8502994,5.50833514 C79.0463746,5.50833514 78.429409,5.26559494 77.9807068,4.79878688 C77.5320046,4.33197882 77.3076535,3.65977521 77.3076535,2.80084837 C77.3076535,2.25935102 77.419829,1.77387064 77.6441801,1.36307954 C77.8685312,0.952288447 78.186362,0.634858965 78.5976724,0.429463417 C79.0089827,0.205395547 79.4950768,0.112033935 80.0559546,0.112033935 C80.6168323,0.112033935 81.1403183,0.22406787 81.6264123,0.429463417 L81.3833653,0.97096077 C80.9159672,0.765565222 80.448569,0.67220361 80.0185627,0.67220361 C79.3829012,0.67220361 78.8781112,0.858926835 78.5228887,1.25104561 C78.1676661,1.64316438 77.9807068,2.16598941 77.9807068,2.83819302 C77.9807068,3.54774127 78.1489701,4.08923863 78.5041927,4.44401275 C78.8594153,4.8174592 79.3642053,4.98551011 80.0372586,4.98551011 C80.4111772,4.98551011 80.7663998,4.94816546 81.1029264,4.85480385 L81.1029264,3.23031179 L79.9250831,3.23031179 L79.9250831,2.67014212 L79.9063872,2.67014212 Z" id="Path"></path>
                                <polygon id="Path" points="87.6651964 5.41497352 87.6651964 0.168050902 88.282162 0.168050902 88.282162 5.41497352"></polygon>
                                <polygon id="Path" points="97.3870779 5.41497352 94.4518175 5.41497352 94.4518175 0.168050902 97.3870779 0.168050902 97.3870779 0.709548255 95.068783 0.709548255 95.068783 2.4087296 97.2562064 2.4087296 97.2562064 2.95022695 95.068783 2.95022695 95.068783 4.89214849 97.3870779 4.89214849"></polygon>
                                <path d="M106.230251,4.03322166 C106.230251,4.50002972 106.061987,4.85480385 105.725461,5.11621636 C105.388934,5.37762888 104.940232,5.50833514 104.360658,5.50833514 C103.743693,5.50833514 103.257599,5.43364585 102.921072,5.26559494 L102.921072,4.66808062 C103.145423,4.76144224 103.369774,4.83613153 103.631517,4.89214849 C103.89326,4.94816546 104.136307,4.96683778 104.379354,4.96683778 C104.790664,4.96683778 105.089799,4.89214849 105.295454,4.74276991 C105.50111,4.59339133 105.613285,4.36932346 105.613285,4.08923863 C105.613285,3.9025154 105.575893,3.75313682 105.50111,3.64110289 C105.426326,3.52906895 105.31415,3.41703502 105.127191,3.3236734 C104.958928,3.23031179 104.697185,3.11827786 104.341962,2.9875716 C103.855868,2.8195207 103.500646,2.61412515 103.29499,2.37138496 C103.089335,2.12864476 102.97716,1.81121528 102.97716,1.43776883 C102.97716,1.02697774 103.126727,0.709548255 103.425862,0.466808062 C103.724997,0.22406787 104.136307,0.112033935 104.641097,0.112033935 C105.164583,0.112033935 105.650677,0.205395547 106.080683,0.392118772 L105.893724,0.914943802 C105.463718,0.728220577 105.033712,0.634858965 104.622401,0.634858965 C104.30457,0.634858965 104.042827,0.709548255 103.855868,0.840254512 C103.668909,0.97096077 103.575429,1.17635632 103.575429,1.41909651 C103.575429,1.60581973 103.612821,1.75519831 103.668909,1.86723225 C103.724997,1.97926618 103.855868,2.09130012 104.005436,2.18466173 C104.155003,2.27802334 104.416746,2.39005728 104.734577,2.50209121 C105.295454,2.70748676 105.669373,2.91288231 105.875028,3.13695018 C106.080683,3.36101805 106.230251,3.65977521 106.230251,4.03322166 Z" id="Path"></path>
                            </g>
                            <g fill="#111D43">
                                <path d="M16.0411044,26.1412515 L7.17923553,26.1412515 L5.49660221,31.2014509 L0.112175555,31.2014509 L9.25448331,6.68469145 L13.9471607,6.68469145 L23.1268603,31.2014509 L17.7424337,31.2014509 L16.0411044,26.1412515 Z M8.54403812,22.0520129 L14.6763018,22.0520129 L11.591474,12.8839025 L8.54403812,22.0520129 Z M12.6384459,0.112033935 L17.9480888,0.112033935 L13.2741074,5.34028423 L9.31057108,5.34028423 L12.6384459,0.112033935 Z" id="Shape"></path>
                                <path d="M22.6594622,21.9586513 C22.6594622,19.1578029 23.3325155,16.9171242 24.6599262,15.1992705 C25.987337,13.5000892 27.7821458,12.6411623 30.0443529,12.6411623 C32.0448169,12.6411623 33.5965788,13.3320383 34.7183343,14.6951178 L34.9239895,12.9772641 L39.336228,12.9772641 L39.336228,30.5852643 C39.336228,32.1724117 38.9810054,33.5728358 38.2518643,34.7491922 C37.5227232,35.9255485 36.5131432,36.82182 35.1857325,37.4380066 C33.8770177,38.0541932 32.3252558,38.3716227 30.5678388,38.3716227 C29.2217321,38.3716227 27.9317132,38.1102102 26.6603903,37.5687129 C25.3890673,37.0272155 24.4355751,36.3550119 23.7812177,35.5147574 L25.9312492,32.5458581 C27.1464844,33.9089377 28.6234625,34.5811413 30.3434877,34.5811413 C31.6335066,34.5811413 32.6430866,34.2450395 33.3535318,33.5541635 C34.0639769,32.8632876 34.4378955,31.8923268 34.4378955,30.6226089 L34.4378955,29.6516481 C33.3161399,30.9213661 31.8391618,31.556225 30.006961,31.556225 C27.8195377,31.556225 26.0434247,30.6972982 24.6973181,28.9794445 C23.3512114,27.2615908 22.6594622,25.0022398 22.6594622,22.1640468 L22.6594622,21.9586513 L22.6594622,21.9586513 Z M27.5390988,22.3134254 C27.5390988,23.9752621 27.8756255,25.2636523 28.5299829,26.1972685 C29.1843403,27.1308846 30.1004406,27.5976927 31.2595881,27.5976927 C32.7365662,27.5976927 33.802234,27.037523 34.4378955,25.9358559 L34.4378955,18.2615314 C33.783538,17.1411921 32.7365662,16.5996947 31.278284,16.5996947 C30.1004406,16.5996947 29.1843403,17.0851751 28.5299829,18.0374635 C27.8756255,18.989752 27.5390988,20.4088485 27.5390988,22.3134254 Z" id="Shape"></path>
                                <path d="M54.4238402,22.5188209 L54.4238402,22.0520129 C54.4238402,20.2221253 54.7790628,18.5789609 55.489508,17.1411921 C55.5642917,16.9918135 55.6577713,16.8237626 55.732555,16.674384 C55.4147243,15.7407679 54.8725424,14.9565303 54.1434013,14.3216714 C52.8159906,13.201332 51.0398776,12.62249 48.7963665,12.62249 C47.3193884,12.62249 45.9732817,12.8839025 44.7767425,13.3880552 C43.5802032,13.8922079 42.6641028,14.6017562 42.0097454,15.4980277 C41.355388,16.3942992 41.0375573,17.3652599 41.0375573,18.4295823 L45.9171939,18.4295823 C45.9171939,17.7387064 46.141545,17.197209 46.6089432,16.8050902 C47.0763413,16.4129715 47.7120028,16.2075759 48.5346236,16.2075759 C49.4694199,16.2075759 50.1424732,16.4689884 50.5911754,16.9731411 C51.0211817,17.4772939 51.2455328,18.1494975 51.2455328,18.989752 L51.2455328,20.035402 L49.0020217,20.035402 C46.2911125,20.0540744 44.2158647,20.5768994 42.7949743,21.6038771 C41.355388,22.6308549 40.6449428,24.1246407 40.6449428,26.0478899 C40.6449428,27.616365 41.2245165,28.9234275 42.4023599,29.9504053 C43.5802032,30.977383 45.0571813,31.5002081 46.8519902,31.5002081 C48.7402787,31.5002081 50.2733447,30.8466768 51.451188,29.5396142 C51.5446676,30.1931455 51.712931,30.7346428 51.9372821,31.1641062 L56.8356146,31.1641062 L56.8356146,30.8840214 C56.4803921,30.2118178 56.2560409,29.3155463 56.1625613,28.1578623 C55.0034139,26.6827488 54.4238402,24.778172 54.4238402,22.5188209 Z M51.2268369,26.0478899 C50.9277021,26.5893872 50.4789998,27.0188507 49.8807302,27.3362801 C49.2824606,27.6537096 48.6094073,27.8217605 47.8989621,27.8217605 C47.151125,27.8217605 46.5715513,27.616365 46.141545,27.2242462 C45.7115388,26.8321274 45.5058836,26.3279747 45.5058836,25.7304604 L45.5245795,25.4503756 C45.6741469,23.7698665 46.9828617,22.929612 49.4133321,22.929612 L51.2268369,22.929612 L51.2268369,26.0478899 Z" id="Shape"></path>
                                <path d="M65.9031387,31.5375527 C63.2296213,31.5375527 61.042198,30.7159705 59.3782606,29.0728061 C57.6956272,27.4296417 56.8543106,25.24498 56.8543106,22.5188209 L56.8543106,22.0520129 C56.8543106,20.2221253 57.2095332,18.5789609 57.9199783,17.1411921 C58.6304235,15.7034232 59.6400035,14.5830839 60.9300224,13.7988463 C62.2200413,13.0146088 63.7157154,12.62249 65.3796528,12.62249 C67.8662109,12.62249 69.847979,13.4067276 71.2688694,14.9752026 C72.7084557,16.5436777 73.4189009,18.7656841 73.4189009,21.6598941 L73.4189009,23.6391603 L61.8087309,23.6391603 C61.9582983,24.8341889 62.4443924,25.7864774 63.2296213,26.4960256 C64.0148502,27.2055739 65.0244302,27.5790203 66.2396654,27.5790203 C68.1092579,27.5790203 69.5862361,26.9068167 70.6332079,25.5437372 L73.0262864,28.2138793 C72.2971453,29.240857 71.3062613,30.0437669 70.0536342,30.6226089 C68.8010072,31.2387955 67.4175087,31.5375527 65.9031387,31.5375527 Z M65.3422609,16.5623501 C64.3700728,16.5623501 63.5848439,16.8984519 62.9865743,17.5519831 C62.3883046,18.2055144 61.9956902,19.1391306 61.8274269,20.3528315 L68.6140479,20.3528315 L68.6140479,19.9607127 C68.595352,18.877718 68.2962172,18.0374635 67.7353394,17.4586215 C67.1744616,16.8611072 66.3705368,16.5623501 65.3422609,16.5623501 Z" id="Shape"></path>
                                <path d="M80.2616098,8.49590674 L80.2616098,12.9772641 L83.3838294,12.9772641 L83.3838294,16.5436777 L80.2616098,16.5436777 L80.2616098,25.6370988 C80.2616098,26.3093024 80.3924812,26.7947828 80.6542242,27.0935399 C80.9159672,27.3922971 81.4020612,27.5230034 82.1312023,27.5230034 C82.6733842,27.5230034 83.1407823,27.4856587 83.5707886,27.4109694 L83.5707886,31.089417 C82.6172964,31.3881741 81.6264123,31.5188804 80.6168323,31.5188804 C77.1954779,31.5188804 75.4567568,29.8010267 75.3819731,26.346647 L75.3819731,16.5436777 L72.7271516,16.5436777 L72.7271516,12.9772641 L75.3819731,12.9772641 L75.3819731,8.49590674 L80.2616098,8.49590674 Z" id="Path"></path>
                                <path d="M84.3373216,8.25316654 C84.3373216,7.52494597 84.5803686,6.92743165 85.0664627,6.46062358 C85.5525568,5.99381552 86.2256101,5.75107533 87.0669268,5.75107533 C87.8895475,5.75107533 88.5626008,5.99381552 89.0486949,6.46062358 C89.534789,6.92743165 89.796532,7.52494597 89.796532,8.25316654 C89.796532,9.00005944 89.5534849,9.59757376 89.0486949,10.0643818 C88.5439049,10.5311899 87.8895475,10.7739301 87.0669268,10.7739301 C86.244306,10.7739301 85.5899486,10.5311899 85.0851586,10.0643818 C84.5990646,9.61624609 84.3373216,9.00005944 84.3373216,8.25316654 Z M89.5160931,31.2014509 L84.6364564,31.2014509 L84.6364564,12.9772641 L89.5160931,12.9772641 L89.5160931,31.2014509 Z" id="Shape"></path>
                                <path d="M101.687141,26.1599238 C101.687141,25.5624095 101.388006,25.0956014 100.808432,24.7594996 C100.210163,24.4233978 99.2753664,24.1059683 97.9666516,23.8445558 C93.6291968,22.929612 91.4604694,21.0997244 91.4604694,18.3175484 C91.4604694,16.6930563 92.1335227,15.3486491 93.4796293,14.2656544 C94.825736,13.1826597 96.583153,12.6411623 98.7518804,12.6411623 C101.070175,12.6411623 102.921072,13.1826597 104.30457,14.2656544 C105.688069,15.3486491 106.379818,16.7677456 106.379818,18.5042716 L101.500182,18.5042716 C101.500182,17.8133957 101.27583,17.2345537 100.827128,16.7864179 C100.378426,16.3382822 99.6679808,16.095542 98.7144886,16.095542 C97.8918679,16.095542 97.2562064,16.2822652 96.8075042,16.6557117 C96.3588019,17.0291581 96.1344508,17.4959662 96.1344508,18.0748082 C96.1344508,18.6163055 96.3961938,19.0457689 96.9009838,19.3818708 C97.4057738,19.7179726 98.2657864,19.9980574 99.4810216,20.2407976 C100.696257,20.4835378 101.724533,20.7636226 102.547153,21.0623798 C105.127191,21.9959959 106.398514,23.6391603 106.398514,25.9545283 C106.398514,27.616365 105.688069,28.9607722 104.248483,29.9877499 C102.827592,31.0147277 100.976696,31.5188804 98.7144886,31.5188804 C97.1814227,31.5188804 95.835316,31.2387955 94.6387768,30.6972982 C93.4609334,30.1558008 92.5261371,29.4089079 91.8530838,28.4566195 C91.1800305,27.504331 90.8435038,26.4773533 90.8435038,25.3756863 L95.4613975,25.3756863 C95.4987893,26.2346131 95.835316,26.9068167 96.4148897,27.3549525 C97.0131593,27.8217605 97.8170841,28.0458284 98.8079682,28.0458284 C99.7427645,28.0458284 100.45321,27.8777775 100.920608,27.5230034 C101.444094,27.1869016 101.687141,26.7387658 101.687141,26.1599238 Z" id="Path"></path>
                            </g>
                        </g>
                        <path d="M8.16382787,42.7257281 L12.0779919,34.6143929 L15.9735171,42.8399722 L18.2660989,48 L41.7324443,48 L21.3415135,3.69230769 L18.4897654,9.61396317 L33.7550052,42.8399722 L30.6050351,42.8399722 L16.6817944,13.3649797 L0,48 L5.74077394,48 L8.16382787,42.7257281 L8.16382787,42.7257281 Z M16.6258778,25.1321279 L24.9947333,42.8399722 L21.56518,42.8399722 L14.8924623,28.7308188 L16.6258778,25.1321279 Z" id="Shape" fill="url(#linearGradient-1)"></path>
                    </g>
                </g>
            </g>
        </g>
    </g>
</svg>