<svg xmlns="http://www.w3.org/2000/svg" width="60" height="60" fill="none" xmlns:v="https://vecta.io/nano"><g clip-path="url(#A)"><g fill="#f3c845"><path d="M42.567 5.261c-.467 0-.845-.378-.845-.845v-1.86c0-.467.378-.845.845-.845s.845.378.845.845v1.86c0 .467-.378.845-.845.845zm0 6.605c-.467 0-.845-.378-.845-.845v-1.86c0-.467.378-.845.845-.845s.845.378.845.845v1.86c0 .467-.378.845-.845.845zm4.232-4.232h-1.86c-.467 0-.845-.378-.845-.845s.378-.845.845-.845h1.86c.467 0 .845.378.845.845s-.378.845-.845.845zm-6.604 0h-1.86c-.467 0-.845-.378-.845-.845s.378-.845.845-.845h1.86c.467 0 .845.378.845.845s-.378.845-.845.845zm13.247 44.054c-.467 0-.845-.378-.845-.845v-1.858c0-.467.378-.845.845-.845s.845.378.845.845v1.858c0 .467-.378.845-.845.845zm0 6.605c-.467 0-.845-.378-.845-.845v-1.86c0-.467.378-.845.845-.845s.845.378.845.845v1.86c0 .467-.378.845-.845.845zm4.232-4.232h-1.86c-.467 0-.845-.378-.845-.845s.378-.845.845-.845h1.86c.467 0 .845.378.845.845s-.378.845-.845.845zm-6.604 0h-1.86c-.467 0-.845-.378-.845-.845s.378-.845.845-.845h1.86c.467 0 .845.378.845.845s-.378.845-.845.845zM5.077 35.996c-.467 0-.845-.378-.845-.845v-1.86c0-.467.378-.845.845-.845s.845.378.845.845v1.86c0 .467-.378.845-.845.845zm0 6.605c-.467 0-.845-.378-.845-.845v-1.86c0-.467.378-.845.845-.845s.845.378.845.845v1.86c0 .467-.378.845-.845.845zm4.232-4.232H7.45c-.467 0-.845-.378-.845-.845s.378-.845.845-.845h1.859c.467 0 .845.378.845.845s-.378.845-.845.845zm-6.605 0H.845c-.467 0-.845-.378-.845-.845s.378-.845.845-.845h1.859c.467 0 .845.378.845.845s-.378.845-.845.845z"/></g><g fill="#d89654"><path d="M28.651 41.414l1.534 3.838a1.5 1.5 0 0 0 .834.834l3.838 1.534a1.5 1.5 0 0 1 0 2.779l-3.838 1.534c-.381.152-.682.454-.834.834l-1.534 3.838a1.5 1.5 0 0 1-2.779 0l-1.534-3.838a1.5 1.5 0 0 0-.834-.834l-3.838-1.534a1.5 1.5 0 0 1 0-2.779l3.838-1.534c.381-.152.682-.454.834-.834l1.534-3.838a1.5 1.5 0 0 1 2.779 0zm23.023-21.146l1.787 4.471c.177.443.529.795.972.972l4.471 1.787c1.462.584 1.462 2.654 0 3.238l-4.471 1.787c-.443.177-.795.529-.972.972l-1.787 4.471c-.584 1.462-2.654 1.462-3.238 0l-1.787-4.471c-.177-.443-.529-.795-.972-.972l-4.471-1.787c-1.462-.584-1.462-2.654 0-3.238l4.471-1.787a1.74 1.74 0 0 0 .972-.972l1.787-4.471c.584-1.462 2.654-1.462 3.238 0zM20.754 7.316l2.241 5.606c.222.556.663.996 1.219 1.218l5.606 2.241c1.833.733 1.833 3.327 0 4.06l-5.606 2.241a2.19 2.19 0 0 0-1.219 1.219l-2.241 5.606c-.733 1.833-3.327 1.833-4.06 0l-2.241-5.606a2.19 2.19 0 0 0-1.218-1.219l-5.606-2.241c-1.833-.733-1.833-3.327 0-4.06l5.606-2.241c.556-.222.996-.663 1.218-1.218l2.241-5.606c.733-1.833 3.327-1.833 4.06 0z"/></g></g><defs><clipPath id="A"><path fill="#fff" d="M0 0h60v60H0z"/></clipPath></defs></svg>